#Comment line ignore any data following # character 
#Hierarchical Translation and Rotation (.htr) file 
[Header]	
#Header keywords are followed by a single value 
FileType HTR		#Single word string
DataType HTRS		#Translation followed by rotation and scale data
FileVersion 1		#integer
NumSegments 64		#integer
NumFrames 3		#integer
DataFrameRate 30		#integer, data frame rate in this file
EulerRotationOrder ZYX
CalibrationUnits mm
RotationUnits Degrees
GlobalAxisofGravity Y
BoneLengthAxis Y
ScaleFactor 1.00
[SegmentNames&Hierarchy]
#CHILD	PARENT
Pinger_Root GLOBAL
Pelvis Pinger_Root
L_Hip Pelvis
R_Hip Pelvis
Rear_Leg01 Pelvis
Spine1 Pelvis
L_Leg01 L_Hip
L_Leg02 L_Leg01
L_Leg03 L_Leg02
L_Foot L_Leg03
L_Toe1_01 L_Foot
L_Toe2_01 L_Foot
L_Toe3_01 L_Foot
planeAlignerLeft L_Foot
L_Toe1_02 L_Toe1_01
L_Toe1_03 L_Toe1_02
L_Toe2_02 L_Toe2_01
L_Toe2_03 L_Toe2_02
L_Toe3_02 L_Toe3_01
L_Toe3_03 L_Toe3_02
planeLockWeightLeft planeAlignerLeft
R_Leg01 R_Hip
R_Leg02 R_Leg01
R_Leg03 R_Leg02
R_Foot R_Leg03
planeAlignerRight R_Foot
R_Toe1_01 R_Foot
R_Toe2_01 R_Foot
R_Toe3_01 R_Foot
planeLockWeightRight planeAlignerRight
R_Toe1_02 R_Toe1_01
R_Toe1_03 R_Toe1_02
R_Toe2_02 R_Toe2_01
R_Toe2_03 R_Toe2_02
R_Toe3_02 R_Toe3_01
R_Toe3_03 R_Toe3_02
Rear_Leg02 Rear_Leg01
Rear_Leg03 Rear_Leg02
Rear_Leg04 Rear_Leg03
Rear_Foot Rear_Leg04
planeAlignerCenter Rear_Foot
Rear_Toe1_01 Rear_Foot
Rear_Toe2_01 Rear_Foot
Rear_Toe3_01 Rear_Foot
planeLockWeightCenter planeAlignerCenter
Rear_Toe1_02 Rear_Toe1_01
Rear_Toe1_03 Rear_Toe1_02
Rear_Toe2_02 Rear_Toe2_01
Rear_Toe2_03 Rear_Toe2_02
Rear_Toe3_02 Rear_Toe3_01
Rear_Toe3_03 Rear_Toe3_02
Back_Bone Spine1
Head Spine1
Motor_Bone Back_Bone
Ping_Mechanism Back_Bone
BN_LookIK Head
bottomMouth Head
L_Mouth01 Head
L_mouthFront Head
mouthGun Head
R_Mouth01 Head
R_mouthFront Head
TopMouth Head
weapon_bone Head
[BasePosition]
#SegmentName Tx, Ty, Tz, Rx, Ry, Rz, BoneLength
Pinger_Root 0.000000 0.000000 0.000000 -90.000000 0.000000 0.000000 10.000000 
Pelvis 0.000000 0.000000 0.000000 0.000000 0.000000 0.000000 10.000000 
L_Hip 0.000000 0.000000 0.000000 0.000000 0.000000 0.000000 10.000000 
R_Hip 0.000000 0.000000 0.000000 0.000000 0.000000 0.000000 10.000000 
Rear_Leg01 0.000000 0.000000 0.000000 0.000000 0.000000 0.000000 10.000000 
Spine1 0.000000 0.000000 0.000000 0.000000 0.000000 0.000000 10.000000 
L_Leg01 0.000000 0.000000 0.000000 0.000000 0.000000 0.000000 10.000000 
L_Leg02 0.000000 0.000000 0.000000 0.000000 0.000000 0.000000 10.000000 
L_Leg03 0.000000 0.000000 0.000000 0.000000 0.000000 0.000000 10.000000 
L_Foot 0.000000 0.000000 0.000000 0.000000 0.000000 0.000000 10.000000 
L_Toe1_01 0.000000 0.000000 0.000000 0.000000 0.000000 0.000000 10.000000 
L_Toe2_01 0.000000 0.000000 0.000000 0.000000 0.000000 0.000000 10.000000 
L_Toe3_01 0.000000 0.000000 0.000000 0.000000 0.000000 0.000000 10.000000 
planeAlignerLeft 0.000000 0.000000 0.000000 0.000000 0.000000 0.000000 10.000000 
L_Toe1_02 0.000000 0.000000 0.000000 0.000000 0.000000 0.000000 10.000000 
L_Toe1_03 0.000000 0.000000 0.000000 0.000000 0.000000 0.000000 10.000000 
L_Toe2_02 0.000000 0.000000 0.000000 0.000000 0.000000 0.000000 10.000000 
L_Toe2_03 0.000000 0.000000 0.000000 0.000000 0.000000 0.000000 10.000000 
L_Toe3_02 0.000000 0.000000 0.000000 0.000000 0.000000 0.000000 10.000000 
L_Toe3_03 0.000000 0.000000 0.000000 0.000000 0.000000 0.000000 10.000000 
planeLockWeightLeft 0.000000 0.000000 0.000000 0.000000 0.000000 0.000000 10.000000 
R_Leg01 0.000000 0.000000 0.000000 0.000000 0.000000 0.000000 10.000000 
R_Leg02 0.000000 0.000000 0.000000 0.000000 0.000000 0.000000 10.000000 
R_Leg03 0.000000 0.000000 0.000000 0.000000 0.000000 0.000000 10.000000 
R_Foot 0.000000 0.000000 0.000000 0.000000 0.000000 0.000000 10.000000 
planeAlignerRight 0.000000 0.000000 0.000000 0.000000 0.000000 0.000000 10.000000 
R_Toe1_01 0.000000 0.000000 0.000000 0.000000 0.000000 0.000000 10.000000 
R_Toe2_01 0.000000 0.000000 0.000000 0.000000 0.000000 0.000000 10.000000 
R_Toe3_01 0.000000 0.000000 0.000000 0.000000 0.000000 0.000000 10.000000 
planeLockWeightRight 0.000000 0.000000 0.000000 0.000000 0.000000 0.000000 10.000000 
R_Toe1_02 0.000000 0.000000 0.000000 0.000000 0.000000 0.000000 10.000000 
R_Toe1_03 0.000000 0.000000 0.000000 0.000000 0.000000 0.000000 10.000000 
R_Toe2_02 0.000000 0.000000 0.000000 0.000000 0.000000 0.000000 10.000000 
R_Toe2_03 0.000000 0.000000 0.000000 0.000000 0.000000 0.000000 10.000000 
R_Toe3_02 0.000000 0.000000 0.000000 0.000000 0.000000 0.000000 10.000000 
R_Toe3_03 0.000000 0.000000 0.000000 0.000000 0.000000 0.000000 10.000000 
Rear_Leg02 0.000000 0.000000 0.000000 0.000000 0.000000 0.000000 10.000000 
Rear_Leg03 0.000000 0.000000 0.000000 0.000000 0.000000 0.000000 10.000000 
Rear_Leg04 0.000000 0.000000 0.000000 0.000000 0.000000 0.000000 10.000000 
Rear_Foot 0.000000 0.000000 0.000000 0.000000 0.000000 0.000000 10.000000 
planeAlignerCenter 0.000000 0.000000 0.000000 0.000000 0.000000 0.000000 10.000000 
Rear_Toe1_01 0.000000 0.000000 0.000000 0.000000 0.000000 0.000000 10.000000 
Rear_Toe2_01 0.000000 0.000000 0.000000 0.000000 0.000000 0.000000 10.000000 
Rear_Toe3_01 0.000000 0.000000 0.000000 0.000000 0.000000 0.000000 10.000000 
planeLockWeightCenter 0.000000 0.000000 0.000000 0.000000 0.000000 0.000000 10.000000 
Rear_Toe1_02 0.000000 0.000000 0.000000 0.000000 0.000000 0.000000 10.000000 
Rear_Toe1_03 0.000000 0.000000 0.000000 0.000000 0.000000 0.000000 10.000000 
Rear_Toe2_02 0.000000 0.000000 0.000000 0.000000 0.000000 0.000000 10.000000 
Rear_Toe2_03 0.000000 0.000000 0.000000 0.000000 0.000000 0.000000 10.000000 
Rear_Toe3_02 0.000000 0.000000 0.000000 0.000000 0.000000 0.000000 10.000000 
Rear_Toe3_03 0.000000 0.000000 0.000000 0.000000 0.000000 0.000000 10.000000 
Back_Bone 0.000000 0.000000 0.000000 0.000000 0.000000 0.000000 10.000000 
Head 0.000000 0.000000 0.000000 0.000000 0.000000 0.000000 10.000000 
Motor_Bone 0.000000 0.000000 0.000000 0.000000 0.000000 0.000000 10.000000 
Ping_Mechanism 0.000000 0.000000 0.000000 0.000000 0.000000 0.000000 10.000000 
BN_LookIK 0.000000 0.000000 0.000000 0.000000 0.000000 0.000000 10.000000 
bottomMouth 0.000000 0.000000 0.000000 0.000000 0.000000 0.000000 10.000000 
L_Mouth01 0.000000 0.000000 0.000000 0.000000 0.000000 0.000000 10.000000 
L_mouthFront 0.000000 0.000000 0.000000 0.000000 0.000000 0.000000 10.000000 
mouthGun 0.000000 0.000000 0.000000 0.000000 0.000000 0.000000 10.000000 
R_Mouth01 0.000000 0.000000 0.000000 0.000000 0.000000 0.000000 10.000000 
R_mouthFront 0.000000 0.000000 0.000000 0.000000 0.000000 0.000000 10.000000 
TopMouth 0.000000 0.000000 0.000000 0.000000 0.000000 0.000000 10.000000 
weapon_bone 0.000000 0.000000 0.000000 0.000000 0.000000 0.000000 10.000000 
#Beginning of Data. Separated by tabs
#Fr	Tx	Ty	Tz	Rx	Ry	Rz	SF
[Pinger_Root]
25 0.000000 0.000000 0.000000 -0.000075 -0.000000 -0.000020 0.000000
26 0.000000 0.000000 0.000000 -0.000075 -0.000000 -0.000020 0.000000
27 0.000000 0.000000 0.000000 -0.000075 -0.000000 -0.000020 0.000000
[Pelvis]
25 58.156994 1062.576050 4397.000000 -82.051460 -78.671127 74.551788 4523.942383
26 60.032665 1083.021362 4062.911621 -65.605515 -82.406708 58.200535 4205.209473
27 62.499050 1078.563110 4192.018555 -52.210651 -83.725708 44.786266 4328.998047
[L_Hip]
25 5.766392 125.831482 872.656799 160.158691 -45.484905 122.312202 881.701050
26 5.766392 125.831482 872.656799 160.158691 -45.484905 122.312202 881.701050
27 5.766392 125.831482 872.656799 160.158691 -45.484905 122.312202 881.701050
[R_Hip]
25 5.765438 125.836372 -872.654907 38.087841 49.812687 125.703735 881.699829
26 5.765438 125.836372 -872.654907 38.087841 49.812687 125.703735 881.699829
27 5.765438 125.836372 -872.654907 38.087841 49.812687 125.703735 881.699829
[Rear_Leg01]
25 -192.298416 -925.602966 -0.001907 172.618927 7.154757 -147.547943 945.367432
26 -192.298416 -925.602966 -0.001907 174.158920 8.542419 -139.561996 945.367432
27 -192.298416 -925.602966 -0.001907 174.575241 8.979516 -138.389175 945.367432
[Spine1]
25 290.604584 5.007505 0.000477 6.383897 -4.127547 11.673700 290.647736
26 290.604584 5.007505 0.000477 5.749178 -5.869060 16.260853 290.647736
27 290.604584 5.007505 0.000477 5.464806 -6.255231 18.264933 290.647736
[L_Leg01]
25 761.932007 -0.002384 -0.069261 21.587889 -9.809269 -15.913769 761.932068
26 761.932007 -0.002384 -0.069261 25.171997 -3.018674 -29.855497 761.932068
27 761.932007 -0.002384 -0.069261 26.073547 -3.543724 -35.362873 761.932068
[L_Leg02]
25 1441.140503 -0.000954 -0.000715 10.670964 -0.128667 -116.254097 1441.140503
26 1441.140503 -0.000954 -0.000715 11.538201 2.146968 -109.360641 1441.140503
27 1441.140503 -0.000954 -0.000715 8.236322 0.796795 -101.646858 1441.140503
[L_Leg03]
25 1686.963989 -0.000715 -0.000954 -0.049343 0.022095 123.379143 1686.963989
26 1686.963989 -0.000715 -0.000954 -0.089766 0.051555 134.203522 1686.963989
27 1686.963989 -0.000715 -0.000954 -0.071950 0.040922 129.801941 1686.963989
[L_Foot]
25 3041.570068 -30.715107 11.297464 4.840925 12.358985 51.900372 3041.746094
26 3041.570068 -30.715107 11.297464 4.326714 13.699910 45.563358 3041.746094
27 3041.570068 -30.715107 11.297464 3.456356 13.871344 44.689903 3041.746094
[L_Toe1_01]
25 -188.216690 -224.732346 -21.137953 94.191238 -7.294878 -177.909576 293.899567
26 -188.216690 -224.732346 -21.137953 94.237732 -7.426326 -178.629211 293.899567
27 -188.216690 -224.732346 -21.137953 94.248047 -7.284284 -178.657150 293.899567
[L_Toe2_01]
25 200.746536 -219.926590 148.838394 -91.648308 -28.547823 -46.949417 332.896027
26 200.746536 -219.926590 148.838394 -91.848045 -28.898146 -46.141514 332.896027
27 200.746536 -219.926590 148.838394 -91.860756 -28.754179 -46.231045 332.896027
[L_Toe3_01]
25 188.832520 -219.859131 -191.078659 -99.270737 15.408067 -61.009014 347.140900
26 188.832520 -219.859131 -191.078659 -99.199226 15.537127 -60.205631 347.140900
27 188.832520 -219.859131 -191.078659 -99.265076 15.565014 -60.409248 347.140900
[planeAlignerLeft]
25 25.726315 -491.054993 110.206451 169.306686 -76.298271 89.968506 503.926880
26 23.538822 -476.487152 112.946014 169.306686 -76.298271 89.968506 490.255920
27 25.016790 -478.894135 111.096939 169.306686 -76.298271 89.968506 492.247864
[L_Toe1_02]
25 413.761139 0.000477 0.000000 0.000203 -25.410625 -0.000182 413.761139
26 413.761139 0.000477 0.000000 0.000203 -25.410625 -0.000182 413.761139
27 413.761139 0.000477 0.000000 0.000203 -25.410625 -0.000182 413.761139
[L_Toe1_03]
25 464.317322 0.000358 -0.000089 0.004142 57.076351 0.004142 464.317322
26 464.317322 0.000358 -0.000089 0.004157 57.205875 0.004157 464.317322
27 464.317322 0.000358 -0.000089 0.004208 57.611855 0.004208 464.317322
[L_Toe2_02]
25 342.235809 -0.000477 0.000238 0.001196 -67.828041 0.001196 342.235809
26 342.235809 -0.000477 0.000238 0.001199 -66.433228 0.001199 342.235809
27 342.235809 -0.000477 0.000238 0.001199 -66.197105 0.001199 342.235809
[L_Toe2_03]
25 420.210846 -0.000715 0.000000 0.008926 74.889839 0.008926 420.210846
26 420.210846 -0.000715 0.000000 -0.001941 72.179504 -0.005480 420.210846
27 420.210846 -0.000715 0.000000 -0.001883 71.898201 -0.005424 420.210846
[L_Toe3_02]
25 329.270111 0.000954 0.000000 0.001178 -80.033974 0.001178 329.270111
26 329.270111 0.000954 0.000000 0.001178 -79.837318 0.001178 329.270111
27 329.270111 0.000954 0.000000 0.001178 -79.640678 0.001178 329.270111
[L_Toe3_03]
25 439.137451 -0.001907 0.000954 -179.994934 80.335747 -179.991425 439.137451
26 439.137451 -0.001907 0.000954 -179.994186 81.283981 -179.990692 439.137451
27 439.137451 -0.001907 0.000954 -179.993698 81.826050 -179.990189 439.137451
[planeLockWeightLeft]
25 999.998718 0.097961 0.076027 -0.011826 -0.004376 0.005620 999.998779
26 999.998718 0.097961 0.076027 -0.011826 -0.004376 0.005620 999.998779
27 999.998718 0.097961 0.076027 -0.011826 -0.004376 0.005620 999.998779
[R_Leg01]
25 761.455627 -0.001907 -0.000358 123.476913 -15.916296 19.014616 761.455688
26 761.455627 -0.001907 -0.000358 118.833916 2.350519 27.176003 761.455688
27 761.455627 -0.001907 -0.000358 117.772858 -4.865441 24.793182 761.455688
[R_Leg02]
25 1441.140625 0.000000 -0.000238 -9.171816 -0.774629 -130.713104 1441.140625
26 1441.140625 0.000000 -0.000238 -8.959919 -3.947994 -123.939812 1441.140625
27 1441.140625 0.000000 -0.000238 -7.450272 -2.091892 -131.467102 1441.140625
[R_Leg03]
25 1686.963989 0.000954 0.001431 0.068069 -0.034935 128.575546 1686.963989
26 1686.963989 0.000954 0.001431 0.126088 -0.081032 144.745773 1686.963989
27 1686.963989 0.000954 0.001431 0.105004 -0.062220 138.132584 1686.963989
[R_Foot]
25 3041.560059 -30.531288 -11.204481 -1.589784 -22.379639 61.972717 3041.734131
26 3041.560059 -30.531288 -11.204481 -0.183372 -24.000092 55.109837 3041.734131
27 3041.560059 -30.531288 -11.204481 0.210669 -23.448832 59.805035 3041.734131
[planeAlignerRight]
25 -135.261841 -471.616211 -322.902832 -36.577137 -71.339012 -64.343925 587.353271
26 -137.686462 -456.946106 -325.919434 -36.577137 -71.339012 -64.343925 577.910706
27 -136.048889 -459.424988 -323.876038 -36.577137 -71.339012 -64.343925 578.339233
[R_Toe1_01]
25 -188.383347 -224.864899 21.052242 77.080513 0.582520 -174.237488 294.101532
26 -188.383347 -224.864899 21.052242 77.149918 0.884302 -173.936615 294.101532
27 -188.383347 -224.864899 21.052242 77.138802 0.689593 -173.934143 294.101532
[R_Toe2_01]
25 200.637817 -220.002121 -148.787384 -89.070061 36.133522 -52.456543 332.857574
26 200.637817 -220.002121 -148.787384 -88.615234 36.632862 -51.342426 332.857574
27 200.637817 -220.002121 -148.787384 -88.577019 36.472153 -51.367836 332.857574
[R_Toe3_01]
25 188.606735 -220.092957 191.126343 -73.060806 -8.911695 -67.086395 347.192566
26 188.606735 -220.092957 191.126343 -73.074005 -8.865639 -66.165245 347.192566
27 188.606735 -220.092957 191.126343 -73.006912 -8.918941 -66.374649 347.192566
[planeLockWeightRight]
25 999.999329 0.000000 0.076017 -0.011823 -0.004379 -0.000027 999.999329
26 999.999329 0.000000 0.076017 -0.011823 -0.004379 -0.000027 999.999329
27 999.999329 0.000000 0.076017 -0.011823 -0.004379 -0.000027 999.999329
[R_Toe1_02]
25 413.762085 0.000477 -0.000119 0.001385 -25.911434 0.001385 413.762085
26 413.762085 0.000477 -0.000119 0.001385 -25.914324 0.001385 413.762085
27 413.762085 0.000477 -0.000119 0.001385 -25.917227 0.001385 413.762085
[R_Toe1_03]
25 464.317810 0.000000 0.001088 0.004109 56.811897 0.004109 464.317810
26 464.317810 0.000000 0.001088 0.003721 53.231831 0.003721 464.317810
27 464.317810 0.000000 0.001088 0.003759 53.619411 0.003759 464.317810
[R_Toe2_02]
25 342.234741 -0.000954 0.000238 0.001212 -61.132046 0.001212 342.234741
26 342.234741 -0.000954 0.000238 0.001217 -59.274124 0.001217 342.234741
27 342.234741 -0.000954 0.000238 0.001218 -59.103500 0.001218 342.234741
[R_Toe2_03]
25 420.210846 0.000715 -0.000268 -0.004231 62.652519 -0.000632 420.210846
26 420.210846 0.000715 -0.000268 -0.004008 59.665249 -0.000385 420.210846
27 420.210846 0.000715 -0.000268 -0.003992 59.420242 -0.000367 420.210846
[R_Toe3_02]
25 329.270355 -0.000477 -0.000954 0.001185 -74.381989 0.001185 329.270355
26 329.270355 -0.000477 -0.000954 0.001185 -74.078415 0.001185 329.270355
27 329.270355 -0.000477 -0.000954 0.001185 -73.774803 0.001185 329.270355
[R_Toe3_03]
25 439.137939 0.000238 0.001431 -0.011134 82.976387 -0.007631 439.137939
26 439.137939 0.000238 0.001431 0.003568 82.273781 0.005321 439.137939
27 439.137939 0.000238 0.001431 0.015970 81.571053 0.015970 439.137939
[Rear_Leg02]
25 1162.777710 -0.029802 0.005960 0.110407 -3.020747 -88.879852 1162.777710
26 1162.777710 -0.029802 0.005960 0.811169 -2.908389 -102.361565 1162.777710
27 1162.777710 -0.029802 0.005960 0.643968 -2.951206 -99.041435 1162.777710
[Rear_Leg03]
25 607.192505 -0.013351 -0.073195 0.008677 -0.003169 60.844978 607.192505
26 607.192505 -0.013351 -0.073195 0.010586 -0.004907 66.094643 607.192505
27 607.192505 -0.013351 -0.073195 0.008554 -0.003462 64.791397 607.192505
[Rear_Leg04]
25 995.874512 -0.020504 -0.011921 -0.039580 -0.017462 51.660622 995.874573
26 995.874512 -0.020504 -0.011921 -0.043518 -0.018114 61.866787 995.874573
27 995.874512 -0.020504 -0.011921 -0.041884 -0.016954 59.260674 995.874573
[Rear_Foot]
25 3096.176270 -0.067472 -0.041425 -137.744156 86.008842 50.207836 3096.176270
26 3096.176270 -0.067472 -0.041425 -141.465698 85.845795 48.002644 3096.176270
27 3096.176270 -0.067472 -0.041425 -140.457138 85.895538 48.582703 3096.176270
[planeAlignerCenter]
25 1.039104 -23.495487 -676.085449 12.240772 -0.001473 179.998184 676.494385
26 1.039600 -25.988461 -661.781128 12.240773 -0.001473 179.998184 662.292053
27 1.040153 -24.307549 -664.011047 12.240769 -0.001473 179.998184 664.456665
[Rear_Toe1_01]
25 0.653352 83.966492 -371.173737 0.248258 35.982315 90.383217 380.553192
26 0.653352 83.966492 -371.173737 0.243945 35.203678 90.379517 380.553192
27 0.653352 83.966492 -371.173737 0.246119 35.401840 90.383842 380.553192
[Rear_Toe2_01]
25 178.200760 -294.826019 -362.060547 -8.019964 24.938921 -67.116058 499.765686
26 178.200760 -294.826019 -362.060547 -8.066939 22.803146 -67.140434 499.765686
27 178.200760 -294.826019 -362.060547 -8.061156 23.007898 -67.120422 499.765686
[Rear_Toe3_01]
25 -153.359680 -308.780914 -362.060852 3.667700 23.180307 -112.185814 499.952881
26 -153.359680 -308.780914 -362.060852 3.683685 20.662754 -112.190033 499.952881
27 -153.359680 -308.780914 -362.060852 3.678439 20.895164 -112.215508 499.952881
[planeLockWeightCenter]
25 1000.000000 0.000305 0.076256 -0.011814 -0.004373 -0.000015 1000.000000
26 1000.000000 0.000305 0.076256 -0.011814 -0.004373 -0.000015 1000.000000
27 1000.000000 0.000305 0.076256 -0.011814 -0.004373 -0.000015 1000.000000
[Rear_Toe1_02]
25 379.707825 0.194073 0.000477 -0.000315 -32.671551 0.006975 379.707855
26 379.707825 0.194073 0.000477 -0.000326 -32.824802 0.006981 379.707855
27 379.707825 0.194073 0.000477 -0.000315 -32.671551 0.006975 379.707855
[Rear_Toe1_03]
25 500.129700 0.165701 0.000119 -0.003945 58.675678 -0.000313 500.129761
26 500.129700 0.165701 0.000119 -0.003981 59.249500 -0.000354 500.129761
27 500.129700 0.165701 0.000119 -0.003938 58.573570 -0.000306 500.129761
[Rear_Toe2_02]
25 340.494507 0.000238 -0.000954 0.001233 -54.348286 0.001233 340.494507
26 340.494507 0.000238 -0.000954 0.001250 -49.806870 0.001250 340.494507
27 340.494507 0.000238 -0.000954 0.001248 -50.128803 0.001248 340.494507
[Rear_Toe2_03]
25 433.103577 0.000000 0.000238 0.003371 49.254982 0.003371 433.103546
26 433.103577 0.000000 0.000238 -0.003373 44.126442 0.000424 433.103546
27 433.103577 0.000000 0.000238 -0.003382 44.478874 0.000410 433.103546
[Rear_Toe3_02]
25 340.494141 -0.000358 -0.000477 -0.002476 -49.512604 -0.002476 340.494171
26 340.494141 -0.000358 -0.000477 -0.002522 -44.149540 -0.002522 340.494171
27 340.494141 -0.000358 -0.000477 -0.002519 -44.539413 -0.002519 340.494171
[Rear_Toe3_03]
25 433.103577 0.001431 -0.000238 0.000435 43.811749 -0.003366 433.103546
26 433.103577 0.001431 -0.000238 0.000630 38.140842 -0.003258 433.103546
27 433.103577 0.001431 -0.000238 0.000617 38.544014 -0.003265 433.103546
[Back_Bone]
25 1312.175781 -701.934692 0.000954 1.120101 0.108156 -93.072159 1488.125488
26 1312.175781 -701.934692 0.000954 0.905619 0.190856 -97.583176 1488.125488
27 1312.175781 -701.934692 0.000954 0.664938 0.164937 -91.564796 1488.125488
[Head]
25 1406.159424 809.709290 0.001431 0.309488 -1.445149 2.659002 1622.625488
26 1406.159424 809.709290 0.001431 0.241107 -1.446286 3.768221 1622.625488
27 1406.159424 809.709290 0.001431 0.093362 -1.459945 6.212273 1622.625488
[Motor_Bone]
25 1158.364380 -417.834747 0.000477 -0.096114 0.074671 -87.187698 1231.419434
26 1158.364380 -417.834747 0.000477 -0.223089 -0.020316 -95.627167 1231.419434
27 1158.364380 -417.834747 0.000477 -0.364029 -0.202499 -111.298439 1231.419434
[Ping_Mechanism]
25 1269.072388 -445.536499 16.044054 0.000103 -0.000053 82.120995 1345.104126
26 1247.362793 -438.731079 21.045593 0.000103 -0.000053 82.120995 1322.437866
27 1236.690796 -439.354828 23.304335 0.000103 -0.000053 82.120995 1312.623291
[BN_LookIK]
25 193.241119 1380.371704 -0.002861 0.000000 89.965736 -31.038179 1393.832153
26 193.241119 1380.371704 -0.002861 0.000000 89.965736 -31.038179 1393.832153
27 193.241119 1380.371704 -0.002861 0.000000 89.965736 -31.038179 1393.832153
[bottomMouth]
25 -435.092926 615.759399 -0.000954 -0.000022 0.000016 73.527184 753.966492
26 -435.092926 615.759399 -0.000954 -0.000022 0.000016 73.527184 753.966492
27 -435.092926 615.759399 -0.000954 -0.000022 0.000016 73.527184 753.966492
[L_Mouth01]
25 554.440979 7.658243 838.222046 150.204178 23.759130 109.605339 1005.027161
26 554.440979 7.658243 838.222046 150.204178 23.759130 109.605339 1005.027161
27 554.440979 7.658243 838.222046 150.204178 23.759130 109.605339 1005.027161
[L_mouthFront]
25 551.629089 934.514771 339.150421 0.000081 2.804060 79.119301 1136.941284
26 551.629089 934.514771 339.150421 0.000081 2.804060 79.119301 1136.941284
27 551.629089 934.514771 339.150421 0.000081 2.804060 79.119301 1136.941284
[mouthGun]
25 55.332661 1627.420898 0.000000 0.000023 0.000009 -11.038128 1628.361328
26 55.332661 1627.420898 0.000000 0.000023 0.000009 -11.038128 1628.361328
27 55.332661 1627.420898 0.000000 0.000023 0.000009 -11.038128 1628.361328
[R_Mouth01]
25 554.442383 7.659197 -838.223938 29.795891 -23.759109 109.605331 1005.029541
26 554.442383 7.659197 -838.223938 29.795891 -23.759109 109.605331 1005.029541
27 554.442383 7.659197 -838.223938 29.795891 -23.759109 109.605331 1005.029541
[R_mouthFront]
25 551.629089 934.514282 -339.151367 0.000029 -2.803930 79.119133 1136.941162
26 551.629089 934.514282 -339.151367 0.000029 -2.803930 79.119133 1136.941162
27 551.629089 934.514282 -339.151367 0.000029 -2.803930 79.119133 1136.941162
[TopMouth]
25 461.269867 -56.106091 -0.008583 -0.000059 -0.000268 92.025169 464.669525
26 461.269867 -56.106091 -0.008583 -0.000059 -0.000268 92.025169 464.669525
27 461.269867 -56.106091 -0.008583 -0.000059 -0.000268 92.025169 464.669525
[weapon_bone]
25 -987.239868 1448.372803 0.001431 0.000000 89.965736 -31.038221 1752.833740
26 -987.239868 1448.372803 0.001431 0.000000 89.965736 -31.038221 1752.833740
27 -987.239868 1448.372803 0.001431 0.000000 89.965736 -31.038221 1752.833740
